<svg xmlns="http://www.w3.org/2000/svg" viewBox="0 0 7.5 5.196"><g fill="white">
<polygon opacity="0.118" points="-0.617 -0.148 -0.031 0.903 0.571 -0.070" />
<polygon opacity="0.105" points="0.571 -0.070 -0.031 0.903 1.100 0.834" />
<polygon opacity="0.151" points="0.571 -0.070 1.100 0.834 1.596 0.196" />
<polygon opacity="0.028" points="1.596 0.196 1.100 0.834 2.132 0.728" />
<polygon opacity="0.157" points="1.596 0.196 2.132 0.728 2.556 0.068" />
<polygon opacity="0.014" points="2.556 0.068 2.132 0.728 3.016 0.803" />
<polygon opacity="0.104" points="2.556 0.068 3.016 0.803 3.326 -0.115" />
<polygon opacity="0.051" points="3.326 -0.115 3.016 0.803 4.077 0.839" />
<polygon opacity="0.004" points="3.326 -0.115 4.077 0.839 4.394 0.194" />
<polygon opacity="0.044" points="4.394 0.194 4.077 0.839 4.982 0.866" />
<polygon opacity="0.109" points="4.394 0.194 4.982 0.866 5.317 -0.038" />
<polygon opacity="0.045" points="5.317 -0.038 4.982 0.866 5.964 0.914" />
<polygon opacity="0.028" points="5.317 -0.038 5.964 0.914 6.501 -0.000" />
<polygon opacity="0.060" points="6.501 -0.000 5.964 0.914 6.995 0.839" />
<polygon opacity="0.140" points="6.501 -0.000 6.995 0.839 7.299 -0.009" />
<polygon opacity="0.017" points="7.299 -0.009 6.995 0.839 7.983 0.874" />
<polygon opacity="0.041" points="-0.031 0.903 -0.304 1.716 0.508 1.646" />
<polygon opacity="0.117" points="-0.031 0.903 0.508 1.646 1.100 0.834" />
<polygon opacity="0.022" points="1.100 0.834 0.508 1.646 1.449 1.562" />
<polygon opacity="0.011" points="1.100 0.834 1.449 1.562 2.132 0.728" />
<polygon opacity="0.059" points="2.132 0.728 1.449 1.562 2.564 1.712" />
<polygon opacity="0.041" points="2.132 0.728 2.564 1.712 3.016 0.803" />
<polygon opacity="0.111" points="3.016 0.803 2.564 1.712 3.502 1.737" />
<polygon opacity="0.100" points="3.016 0.803 3.502 1.737 4.077 0.839" />
<polygon opacity="0.065" points="4.077 0.839 3.502 1.737 4.563 1.772" />
<polygon opacity="0.091" points="4.077 0.839 4.563 1.772 4.982 0.866" />
<polygon opacity="0.078" points="4.982 0.866 4.563 1.772 5.496 1.730" />
<polygon opacity="0.153" points="4.982 0.866 5.496 1.730 5.964 0.914" />
<polygon opacity="0.098" points="5.964 0.914 5.496 1.730 6.648 1.875" />
<polygon opacity="0.048" points="5.964 0.914 6.648 1.875 6.995 0.839" />
<polygon opacity="0.156" points="6.995 0.839 6.648 1.875 7.515 1.873" />
<polygon opacity="0.154" points="6.995 0.839 7.515 1.873 7.983 0.874" />
<polygon opacity="0.141" points="-0.304 1.716 0.010 2.544 0.508 1.646" />
<polygon opacity="0.129" points="0.508 1.646 0.010 2.544 1.244 2.554" />
<polygon opacity="0.098" points="0.508 1.646 1.244 2.554 1.449 1.562" />
<polygon opacity="0.004" points="1.449 1.562 1.244 2.554 2.002 2.601" />
<polygon opacity="0.099" points="1.449 1.562 2.002 2.601 2.564 1.712" />
<polygon opacity="0.009" points="2.564 1.712 2.002 2.601 2.961 2.661" />
<polygon opacity="0.048" points="2.564 1.712 2.961 2.661 3.502 1.737" />
<polygon opacity="0.158" points="3.502 1.737 2.961 2.661 3.972 2.368" />
<polygon opacity="0.079" points="3.502 1.737 3.972 2.368 4.563 1.772" />
<polygon opacity="0.156" points="4.563 1.772 3.972 2.368 4.837 2.549" />
<polygon opacity="0.080" points="4.563 1.772 4.837 2.549 5.496 1.730" />
<polygon opacity="0.013" points="5.496 1.730 4.837 2.549 6.021 2.384" />
<polygon opacity="0.094" points="5.496 1.730 6.021 2.384 6.648 1.875" />
<polygon opacity="0.009" points="6.648 1.875 6.021 2.384 7.042 2.633" />
<polygon opacity="0.153" points="6.648 1.875 7.042 2.633 7.515 1.873" />
<polygon opacity="0.148" points="7.515 1.873 7.042 2.633 7.961 2.671" />
<polygon opacity="0.084" points="0.010 2.544 -0.565 3.555 0.274 3.529" />
<polygon opacity="0.144" points="0.010 2.544 0.274 3.529 1.244 2.554" />
<polygon opacity="0.147" points="1.244 2.554 0.274 3.529 1.390 3.343" />
<polygon opacity="0.090" points="1.244 2.554 1.390 3.343 2.002 2.601" />
<polygon opacity="0.106" points="2.002 2.601 1.390 3.343 2.585 3.504" />
<polygon opacity="0.120" points="2.002 2.601 2.585 3.504 2.961 2.661" />
<polygon opacity="0.086" points="2.961 2.661 2.585 3.504 3.692 3.305" />
<polygon opacity="0.127" points="2.961 2.661 3.692 3.305 3.972 2.368" />
<polygon opacity="0.074" points="3.972 2.368 3.692 3.305 4.552 3.504" />
<polygon opacity="0.034" points="3.972 2.368 4.552 3.504 4.837 2.549" />
<polygon opacity="0.084" points="4.837 2.549 4.552 3.504 5.400 3.565" />
<polygon opacity="0.086" points="4.837 2.549 5.400 3.565 6.021 2.384" />
<polygon opacity="0.133" points="6.021 2.384 5.400 3.565 6.534 3.521" />
<polygon opacity="0.140" points="6.021 2.384 6.534 3.521 7.042 2.633" />
<polygon opacity="0.020" points="7.042 2.633 6.534 3.521 7.481 3.463" />
<polygon opacity="0.125" points="7.042 2.633 7.481 3.463 7.961 2.671" />
<polygon opacity="0.074" points="-0.565 3.555 -0.000 4.330 0.274 3.529" />
<polygon opacity="0.049" points="0.274 3.529 -0.000 4.330 1.015 4.315" />
<polygon opacity="0.041" points="0.274 3.529 1.015 4.315 1.390 3.343" />
<polygon opacity="0.074" points="1.390 3.343 1.015 4.315 1.926 4.214" />
<polygon opacity="0.026" points="1.390 3.343 1.926 4.214 2.585 3.504" />
<polygon opacity="0.063" points="2.585 3.504 1.926 4.214 2.844 4.326" />
<polygon opacity="0.037" points="2.585 3.504 2.844 4.326 3.692 3.305" />
<polygon opacity="0.070" points="3.692 3.305 2.844 4.326 3.972 4.382" />
<polygon opacity="0.132" points="3.692 3.305 3.972 4.382 4.552 3.504" />
<polygon opacity="0.052" points="4.552 3.504 3.972 4.382 4.766 4.308" />
<polygon opacity="0.017" points="4.552 3.504 4.766 4.308 5.400 3.565" />
<polygon opacity="0.110" points="5.400 3.565 4.766 4.308 5.842 4.266" />
<polygon opacity="0.131" points="5.400 3.565 5.842 4.266 6.534 3.521" />
<polygon opacity="0.101" points="6.534 3.521 5.842 4.266 7.036 4.149" />
<polygon opacity="0.153" points="6.534 3.521 7.036 4.149 7.481 3.463" />
<polygon opacity="0.039" points="7.481 3.463 7.036 4.149 8.171 4.430" />
<polygon opacity="0.044" points="-0.000 4.330 -0.709 5.299 0.589 5.392" />
<polygon opacity="0.031" points="-0.000 4.330 0.589 5.392 1.015 4.315" />
<polygon opacity="0.100" points="1.015 4.315 0.589 5.392 1.335 5.195" />
<polygon opacity="0.106" points="1.015 4.315 1.335 5.195 1.926 4.214" />
<polygon opacity="0.023" points="1.926 4.214 1.335 5.195 2.499 5.198" />
<polygon opacity="0.120" points="1.926 4.214 2.499 5.198 2.844 4.326" />
<polygon opacity="0.110" points="2.844 4.326 2.499 5.198 3.562 5.211" />
<polygon opacity="0.042" points="2.844 4.326 3.562 5.211 3.972 4.382" />
<polygon opacity="0.045" points="3.972 4.382 3.562 5.211 4.380 5.228" />
<polygon opacity="0.013" points="3.972 4.382 4.380 5.228 4.766 4.308" />
<polygon opacity="0.046" points="4.766 4.308 4.380 5.228 5.394 5.362" />
<polygon opacity="0.150" points="4.766 4.308 5.394 5.362 5.842 4.266" />
<polygon opacity="0.051" points="5.842 4.266 5.394 5.362 6.456 5.010" />
<polygon opacity="0.087" points="5.842 4.266 6.456 5.010 7.036 4.149" />
<polygon opacity="0.066" points="7.036 4.149 6.456 5.010 7.608 5.132" />
<polygon opacity="0.156" points="7.036 4.149 7.608 5.132 8.171 4.430" />
</g></svg>
